<?xml version="1.0" encoding="UTF-8" standalone="no"?>
<svg
   xmlns:osb="http://www.openswatchbook.org/uri/2009/osb"
   xmlns:dc="http://purl.org/dc/elements/1.1/"
   xmlns:cc="http://creativecommons.org/ns#"
   xmlns:rdf="http://www.w3.org/1999/02/22-rdf-syntax-ns#"
   xmlns:svg="http://www.w3.org/2000/svg"
   xmlns="http://www.w3.org/2000/svg"
   xmlns:sodipodi="http://sodipodi.sourceforge.net/DTD/sodipodi-0.dtd"
   xmlns:inkscape="http://www.inkscape.org/namespaces/inkscape"
   inkscape:export-ydpi="72"
   inkscape:export-xdpi="72"
   inkscape:export-filename="/Users/maronato/Documents/maronato.dev/blog2/src/assets/logo.png"
   inkscape:version="1.0beta2 (2b71d25, 2019-12-03)"
   sodipodi:docname="logo.svg"
   id="svg16"
   version="1.1"
   viewBox="0 0 147.94118 147.94118"
   height="147.94118mm"
   width="147.94118mm">
  <defs
     id="defs10">
    <linearGradient
       osb:paint="solid"
       id="linearGradient3027">
      <stop
         id="stop3025"
         offset="0"
         style="stop-color:#000000;stop-opacity:1;" />
    </linearGradient>
  </defs>
  <sodipodi:namedview
     lock-margins="false"
     fit-margin-bottom="1.905435"
     fit-margin-right="0"
     fit-margin-left="0"
     fit-margin-top="1.90543"
     inkscape:window-maximized="1"
     inkscape:window-y="23"
     inkscape:window-x="0"
     inkscape:window-height="1155"
     inkscape:window-width="2048"
     showgrid="false"
     inkscape:document-rotation="0"
     inkscape:current-layer="layer5"
     inkscape:document-units="mm"
     inkscape:cy="350.5666"
     inkscape:cx="212.70393"
     inkscape:zoom="0.71868502"
     inkscape:pageshadow="2"
     inkscape:pageopacity="0"
     borderopacity="1.0"
     bordercolor="#666666"
     pagecolor="#ffffff"
     id="base">
    <inkscape:grid
       originy="-80.464253"
       originx="-3.4999996"
       id="grid20"
       type="xygrid" />
  </sodipodi:namedview>
  <metadata
     id="metadata13">
    <rdf:RDF>
      <cc:Work
         rdf:about="">
        <dc:format>image/svg+xml</dc:format>
        <dc:type
           rdf:resource="http://purl.org/dc/dcmitype/StillImage" />
        <dc:title></dc:title>
      </cc:Work>
    </rdf:RDF>
  </metadata>
  <g
     transform="translate(-3.4999995,-80.464258)"
     style="display:inline;opacity:1"
     inkscape:label="Logo"
     id="layer5"
     inkscape:groupmode="layer">
    <path
       transform="matrix(0.26458333,0,0,0.26458333,3.4999995,80.464258)"
       d="M 360.0293 7.1992188 C 266.9829 7.1992188 188.71362 71.248653 166.94141 157.59961 C 72.40064 172.71665 -5.7963562e-06 254.76743 0 353.52148 C -6.4251969e-06 462.98926 88.958013 551.94531 198.42578 551.94531 C 290.77929 551.94531 368.53268 488.62916 390.58789 403.09766 C 485.96745 388.36494 559.1484 305.77947 559.14844 206.31836 C 559.14844 96.467487 469.8802 7.199215 360.0293 7.1992188 z M 360.0293 27.441406 C 458.94202 27.441406 538.9082 107.40563 538.9082 206.31836 C 538.90817 293.32072 477.03674 365.6583 394.82617 381.82031 C 396.15052 372.57445 396.84961 363.12965 396.84961 353.52148 C 396.84961 244.0537 307.89355 155.0957 198.42578 155.0957 C 195.09887 155.0957 191.79101 155.18134 188.50391 155.34375 C 210.41516 81.328795 278.83492 27.441406 360.0293 27.441406 z M 198.42578 175.26367 C 296.99354 175.26367 376.68359 254.95375 376.68359 353.52148 C 376.68359 364.14956 375.75137 374.55508 373.97461 384.66797 C 369.37323 385.02154 364.72251 385.20312 360.0293 385.20312 C 261.11658 385.20312 181.14455 305.23109 181.14453 206.31836 C 181.14453 195.93423 182.03632 185.76306 183.72852 175.86719 C 188.5757 175.47292 193.47567 175.26367 198.42578 175.26367 z M 162.81641 178.8125 C 161.56983 187.80613 160.91016 196.98547 160.91016 206.31836 C 160.91017 316.16927 250.17841 405.4375 360.0293 405.4375 C 363.06327 405.4375 366.07896 405.3574 369.08008 405.22266 C 346.95855 478.51512 279.00633 531.7793 198.42578 531.7793 C 99.858023 531.7793 20.167963 452.08922 20.167969 353.52148 C 20.167963 267.15162 81.356632 195.27913 162.81641 178.8125 z M 197.78516 183.75977 C 195.5546 183.76977 193.33467 183.82487 191.125 183.91797 C 190.82583 186.20296 190.58794 188.50783 190.37891 190.82031 L 197.78516 183.75977 z M 209.92188 184.14648 L 189.71094 203.41211 C 189.69454 204.38072 189.66211 205.34577 189.66211 206.31836 C 189.66211 214.55733 190.25844 222.654 191.38477 230.57812 L 236.11328 187.94531 C 227.60909 186.02308 218.86071 184.74227 209.92188 184.14648 z M 151.56055 190.30273 C 80.537672 210.60598 28.656254 275.9113 28.65625 353.52148 C 28.656258 447.39554 104.55173 523.28906 198.42578 523.28906 C 270.47447 523.28906 331.92492 478.57903 356.60742 415.34961 C 242.8395 413.51574 150.9551 320.51781 150.95508 206.31836 C 150.95508 200.93015 151.15883 195.58924 151.56055 190.30273 z M 246.28516 190.58203 L 193.22266 241.1582 C 194.83467 248.93775 196.98001 256.51976 199.61133 263.86914 L 268.07227 198.61523 C 261.05244 195.45981 253.77515 192.77313 246.28516 190.58203 z M 276.37109 202.625 L 202.98828 272.56641 C 205.82784 279.30198 209.09471 285.81112 212.74219 292.07031 L 294.90039 213.75977 C 288.98484 209.67222 282.80029 205.94767 276.37109 202.625 z M 302.53711 219.35156 L 217.76367 300.1543 C 221.62399 306.00087 225.83482 311.59514 230.36719 316.90625 L 318.23047 233.1582 C 313.2914 228.24182 308.04947 223.63256 302.53711 219.35156 z M 324.20703 239.41406 L 236.14844 323.34961 C 240.92475 328.40439 246.00513 333.16805 251.36523 337.60742 L 337.27148 255.72461 C 333.24865 250.01877 328.88629 244.57027 324.20703 239.41406 z M 342.30469 263.29492 L 258.48438 343.19141 C 264.20234 347.43751 270.19876 351.32759 276.4375 354.8418 L 352.58594 282.25977 C 349.55401 275.70033 346.11661 269.36768 342.30469 263.29492 z M 356.13867 290.50781 L 284.28711 358.99414 C 291.12728 362.38873 298.22315 365.34763 305.54883 367.8125 L 363.27734 312.78711 C 361.39998 305.14343 359.01022 297.70298 356.13867 290.50781 z M 365.35352 322.43945 L 314.80273 370.62305 C 322.93034 372.84963 331.3015 374.48915 339.86914 375.49609 L 368.11719 348.57227 C 367.86322 339.67085 366.92237 330.94397 365.35352 322.43945 z M 367.97852 361.61133 L 352.35156 376.50586 C 354.89733 376.61839 357.45541 376.68555 360.0293 376.68555 C 362.24375 376.68555 364.44491 376.62845 366.63867 376.54492 C 367.30269 371.63222 367.73943 366.64785 367.97852 361.61133 z "
       style="color:#000000;font-style:normal;font-variant:normal;font-weight:normal;font-stretch:normal;font-size:medium;line-height:normal;font-family:sans-serif;font-variant-ligatures:normal;font-variant-position:normal;font-variant-caps:normal;font-variant-numeric:normal;font-variant-alternates:normal;font-variant-east-asian:normal;font-feature-settings:normal;font-variation-settings:normal;text-indent:0;text-align:start;text-decoration:none;text-decoration-line:none;text-decoration-style:solid;text-decoration-color:#000000;letter-spacing:normal;word-spacing:normal;text-transform:none;writing-mode:lr-tb;direction:ltr;text-orientation:mixed;dominant-baseline:auto;baseline-shift:baseline;text-anchor:start;white-space:normal;shape-padding:0;shape-margin:0;inline-size:0;clip-rule:nonzero;display:inline;overflow:visible;visibility:visible;opacity:1;isolation:auto;mix-blend-mode:normal;color-interpolation:sRGB;color-interpolation-filters:linearRGB;solid-color:#000000;solid-opacity:1;vector-effect:none;fill:#64a0d8;fill-opacity:1;fill-rule:nonzero;stroke:none;stroke-width:20.1688;stroke-linecap:butt;stroke-linejoin:miter;stroke-miterlimit:5.9;stroke-dasharray:none;stroke-dashoffset:0;stroke-opacity:1;color-rendering:auto;image-rendering:auto;shape-rendering:auto;text-rendering:auto;enable-background:accumulate;stop-color:#000000;stop-opacity:1"
       id="path3473" />
  </g>
</svg>
